/* XPM */
static const char * stella_icon[] = {
"32 32 3 1",
" 	c None",
".	c #000000",
"+	c #FFFFFF",
"                                ",
"                                ",
"                                ",
"                                ",
"         ..............         ",
"         ..............         ",
"         ..++..++..++..         ",
"         ..++..++..++..         ",
"         ..++..++..++..         ",
"         ..++..++..++..         ",
"         ..++..++..++..         ",
"         ..++..++..++..         ",
"         ..++..++..++..         ",
"         ..++..++..++..         ",
"       ....++..++..++....       ",
"       ....++..++..++....       ",
"     ....++++..++..++++....     ",
"     ....++++..++..++++....     ",
"     ..++++....++....++++..     ",
"     ..++++....++....++++..     ",
" ......++......++......++...... ",
" ......++......++......++...... ",
" ..++++++..  ..++..  ..++++++.. ",
" ..++++++..  ..++..  ..++++++.. ",
" ..++++....  ..++..  ....++++.. ",
" ..++++....  ..++..  ....++++.. ",
" ........    ......    ........ ",
" ........    ......    ........ ",
"                                ",
"                                ",
"                                ",
"                                "};
